<svg width="28" height="41" viewBox="0 0 28 41" fill="none" xmlns="http://www.w3.org/2000/svg">
<path d="M12.5 7.4375C12.5 8.08397 12.2629 8.70395 11.841 9.16107C11.419 9.61819 10.8467 9.875 10.25 9.875C9.65326 9.875 9.08097 9.61819 8.65901 9.16107C8.23705 8.70395 8 8.08397 8 7.4375C8 6.79103 8.23705 6.17105 8.65901 5.71393C9.08097 5.25681 9.65326 5 10.25 5C10.8467 5 11.419 5.25681 11.841 5.71393C12.2629 6.17105 12.5 6.79103 12.5 7.4375Z" fill="#3A312E"/>
<path d="M4.25 0C3.65326 0 3.08097 0.256807 2.65901 0.713927C2.23705 1.17105 2 1.79103 2 2.4375L2 17.0625C2 17.709 2.23705 18.329 2.65901 18.7861C3.08097 19.2432 3.65326 19.5 4.25 19.5H23.75C24.3467 19.5 24.919 19.2432 25.341 18.7861C25.7629 18.329 26 17.709 26 17.0625V2.4375C26 1.79103 25.7629 1.17105 25.341 0.713927C24.919 0.256807 24.3467 0 23.75 0H4.25ZM23.75 1.625C23.9489 1.625 24.1397 1.7106 24.2803 1.86298C24.421 2.01535 24.5 2.22201 24.5 2.4375V12.1875L18.8375 9.02362C18.6968 8.94729 18.5376 8.92081 18.3822 8.94793C18.2269 8.97505 18.0834 9.0544 17.972 9.17475L12.407 15.2035L8.417 12.324C8.27294 12.2201 8.10014 12.1734 7.92791 12.1917C7.75567 12.2101 7.5946 12.2924 7.472 12.4247L3.503 16.25V17.1275C3.50121 17.1059 3.50021 17.0842 3.5 17.0625V2.4375C3.5 2.22201 3.57902 2.01535 3.71967 1.86298C3.86032 1.7106 4.05109 1.625 4.25 1.625H23.75Z" fill="#3A312E"/>
<path d="M2.64 38.58C2.336 38.58 2.05333 38.5347 1.792 38.444C1.53067 38.348 1.304 38.1987 1.112 37.996C0.92 37.788 0.770667 37.5187 0.664 37.188C0.557333 36.852 0.504 36.444 0.504 35.964V35.54C0.504 35.0653 0.56 34.6627 0.672 34.332C0.784 33.996 0.938667 33.7267 1.136 33.524C1.33867 33.316 1.576 33.1667 1.848 33.076C2.12 32.98 2.416 32.932 2.736 32.932H2.832C3.10933 32.932 3.37067 32.9693 3.616 33.044C3.86667 33.1187 4.088 33.236 4.28 33.396C4.472 33.556 4.624 33.764 4.736 34.02C4.848 34.2707 4.904 34.5747 4.904 34.932H4.104C4.104 34.5907 4.04 34.324 3.912 34.132C3.78933 33.94 3.62667 33.804 3.424 33.724C3.22133 33.644 2.99733 33.604 2.752 33.604C2.55467 33.604 2.37333 33.6333 2.208 33.692C2.04267 33.7453 1.89867 33.8387 1.776 33.972C1.65333 34.1053 1.55733 34.2867 1.488 34.516C1.424 34.74 1.392 35.0227 1.392 35.364V36.148C1.392 36.4893 1.424 36.7747 1.488 37.004C1.55733 37.228 1.65333 37.4067 1.776 37.54C1.89867 37.6733 2.04267 37.7693 2.208 37.828C2.37333 37.8813 2.55467 37.908 2.752 37.908C2.93333 37.908 3.10667 37.8867 3.272 37.844C3.43733 37.8013 3.584 37.7293 3.712 37.628C3.84 37.5213 3.93867 37.38 4.008 37.204C4.08267 37.028 4.12 36.804 4.12 36.532V36.22H2.568V35.612H4.904V37.484C4.904 37.7507 4.90933 37.9693 4.92 38.14C4.936 38.3107 4.94667 38.4307 4.952 38.5H4.456L4.296 37.812C4.13067 38.068 3.90133 38.26 3.608 38.388C3.31467 38.516 3.01067 38.58 2.696 38.58H2.64ZM7.15656 38.58C6.9379 38.58 6.72723 38.5453 6.52456 38.476C6.32723 38.4067 6.16456 38.2893 6.03656 38.124C5.9139 37.9533 5.85256 37.724 5.85256 37.436C5.85256 37.1427 5.91656 36.908 6.04456 36.732C6.1779 36.5507 6.36456 36.412 6.60456 36.316C6.8499 36.22 7.14056 36.156 7.47656 36.124C7.8179 36.092 8.19123 36.076 8.59656 36.076V35.66C8.59656 35.372 8.52456 35.172 8.38056 35.06C8.2419 34.9427 8.02056 34.884 7.71656 34.884C7.46056 34.884 7.23923 34.94 7.05256 35.052C6.8659 35.1587 6.77256 35.3293 6.77256 35.564V35.66H5.99656C5.99123 35.6333 5.98856 35.6067 5.98856 35.58C5.98856 35.548 5.98856 35.516 5.98856 35.484C5.98856 35.2493 6.06056 35.0467 6.20456 34.876C6.3539 34.7 6.5539 34.5667 6.80456 34.476C7.06056 34.38 7.35123 34.332 7.67656 34.332H7.78856C8.32723 34.332 8.72723 34.4387 8.98856 34.652C9.25523 34.8653 9.38856 35.172 9.38856 35.572V37.74C9.38856 37.836 9.4099 37.9053 9.45256 37.948C9.49523 37.9907 9.5459 38.012 9.60456 38.012C9.66323 38.012 9.72456 38.0013 9.78856 37.98C9.8579 37.9587 9.91923 37.932 9.97256 37.9V38.412C9.90323 38.4653 9.8179 38.5053 9.71656 38.532C9.61523 38.564 9.49523 38.58 9.35656 38.58C9.1859 38.58 9.04723 38.548 8.94056 38.484C8.83923 38.4147 8.76456 38.324 8.71656 38.212C8.66856 38.1 8.63923 37.9747 8.62856 37.836C8.4739 38.076 8.27123 38.26 8.02056 38.388C7.77523 38.516 7.48723 38.58 7.15656 38.58ZM7.47656 38.012C7.66323 38.012 7.8419 37.972 8.01256 37.892C8.18323 37.8067 8.3219 37.6787 8.42856 37.508C8.54056 37.3373 8.59656 37.124 8.59656 36.868V36.564C8.19656 36.564 7.85256 36.5853 7.56456 36.628C7.27656 36.6653 7.05523 36.74 6.90056 36.852C6.75123 36.964 6.67656 37.1373 6.67656 37.372C6.67656 37.596 6.74323 37.7587 6.87656 37.86C7.0099 37.9613 7.2099 38.012 7.47656 38.012ZM10.8898 38.5V32.74H11.6898V38.5H10.8898ZM12.9836 38.5V32.74H13.7836V38.5H12.9836ZM16.7253 38.58C16.3626 38.58 16.0426 38.5027 15.7653 38.348C15.4933 38.188 15.28 37.956 15.1253 37.652C14.9706 37.3427 14.8933 36.972 14.8933 36.54V36.372C14.8933 35.9347 14.9733 35.564 15.1333 35.26C15.2986 34.956 15.5226 34.7267 15.8053 34.572C16.088 34.412 16.4106 34.332 16.7733 34.332H16.8613C17.192 34.332 17.4853 34.4013 17.7413 34.54C17.9973 34.6787 18.1946 34.876 18.3333 35.132C18.4773 35.388 18.5493 35.692 18.5493 36.044V36.556H15.7253C15.7253 36.86 15.7653 37.1213 15.8453 37.34C15.9306 37.5587 16.0506 37.7267 16.2053 37.844C16.3653 37.956 16.56 38.012 16.7893 38.012C16.9813 38.012 17.152 37.9747 17.3013 37.9C17.4506 37.8253 17.5706 37.7107 17.6613 37.556C17.752 37.4013 17.7973 37.2093 17.7973 36.98H18.5493C18.5493 37.3053 18.472 37.588 18.3173 37.828C18.1626 38.068 17.952 38.2547 17.6853 38.388C17.424 38.516 17.128 38.58 16.7973 38.58H16.7253ZM15.7333 36.076H17.7653C17.7653 35.676 17.6773 35.38 17.5013 35.188C17.3306 34.996 17.0906 34.9 16.7813 34.9C16.4986 34.9 16.256 34.9987 16.0533 35.196C15.856 35.3933 15.7493 35.6867 15.7333 36.076ZM19.6476 38.5V34.412H20.2396L20.3516 35.012C20.357 35.0013 20.381 34.9613 20.4236 34.892C20.4663 34.8227 20.5303 34.7453 20.6156 34.66C20.7063 34.5693 20.821 34.492 20.9596 34.428C21.1036 34.364 21.2796 34.332 21.4876 34.332C21.7703 34.332 22.0023 34.3907 22.1836 34.508C22.3703 34.62 22.5063 34.7747 22.5916 34.972C22.6823 35.1693 22.7276 35.3933 22.7276 35.644C22.7276 35.6973 22.725 35.7533 22.7196 35.812C22.7143 35.8653 22.7116 35.908 22.7116 35.94H22.0236V35.788C22.0236 35.6707 21.9996 35.548 21.9516 35.42C21.909 35.2867 21.8316 35.1773 21.7196 35.092C21.6076 35.0013 21.4503 34.956 21.2476 34.956C21.0983 34.956 20.9703 34.988 20.8636 35.052C20.7623 35.116 20.6796 35.196 20.6156 35.292C20.557 35.388 20.5143 35.4893 20.4876 35.596C20.461 35.7027 20.4476 35.8013 20.4476 35.892V38.5H19.6476ZM23.9613 39.988C23.844 39.988 23.7373 39.9773 23.6413 39.956C23.5453 39.94 23.452 39.9133 23.3613 39.876V39.252C23.42 39.2733 23.4946 39.2947 23.5853 39.316C23.676 39.3373 23.764 39.348 23.8493 39.348C23.988 39.348 24.1026 39.3187 24.1933 39.26C24.284 39.2067 24.3666 39.1133 24.4413 38.98C24.5213 38.8467 24.6013 38.6653 24.6813 38.436L23.0813 34.412H23.9373L25.0733 37.436H25.1133L26.2253 34.412H27.0173L25.4813 38.332C25.364 38.636 25.2386 38.9133 25.1053 39.164C24.9773 39.4147 24.8226 39.6147 24.6413 39.764C24.46 39.9133 24.2333 39.988 23.9613 39.988Z" fill="#716966"/>
</svg>
