<?xml version="1.0" encoding="UTF-8"?>
<svg version="1.1" xmlns="http://www.w3.org/2000/svg" width="128" height="128">
<path d="M0 0 C29.98658576 -0.84359579 29.98658576 -0.84359579 41 4 C42.08796875 4.474375 43.1759375 4.94875 44.296875 5.4375 C55.37701562 10.84752171 64.17658237 18.76487355 71 29 C71.66 29 72.32 29 73 29 C73.103125 29.68835938 73.20625 30.37671875 73.3125 31.0859375 C74.12572638 34.5329084 75.47293079 37.43136967 77 40.625 C79.81079007 46.53036184 81.12448511 50.50114917 81.09765625 57.07421875 C81.09553383 58.09996758 81.09553383 58.09996758 81.09336853 59.1464386 C81.08777876 61.32683722 81.07522822 63.50713251 81.0625 65.6875 C81.05748367 67.16731622 81.052921 68.64713406 81.04882812 70.12695312 C81.03781271 73.75133557 81.02055512 77.3756577 81 81 C80.01 81.495 80.01 81.495 79 82 C78.21136805 83.76629927 77.49424881 85.56475912 76.8125 87.375 C70.99454671 101.67393475 62.45061253 111.8372989 49.08984375 119.58984375 C48.40019531 120.05519531 47.71054688 120.52054687 47 121 C47 121.66 47 122.32 47 123 C45.02 123.33 43.04 123.66 41 124 C41 124.66 41 125.32 41 126 C40.40832031 126.06058594 39.81664063 126.12117188 39.20703125 126.18359375 C38.41683594 126.26738281 37.62664062 126.35117188 36.8125 126.4375 C35.64654297 126.55931641 35.64654297 126.55931641 34.45703125 126.68359375 C32.02681755 126.9545517 32.02681755 126.9545517 29.7890625 127.515625 C12.9205975 130.44516234 -3.66332077 127.37066082 -18 118 C-27.95564883 110.94320186 -34.57724764 103.25668099 -40.51953125 92.63671875 C-42.01464363 89.89536223 -42.01464363 89.89536223 -44 87 C-45.99913653 81.0025904 -47.12466717 76.42145329 -47.09765625 70.046875 C-47.0962413 69.38665344 -47.09482635 68.72643188 -47.09336853 68.04620361 C-47.08779245 65.94742206 -47.07524447 63.84874905 -47.0625 61.75 C-47.0574819 60.32291821 -47.05291954 58.89583475 -47.04882812 57.46875 C-47.03783088 53.97913168 -47.0205828 50.48957644 -47 47 C-46.34 47 -45.68 47 -45 47 C-45 45.02 -45 43.04 -45 41 C-44.34 41 -43.68 41 -43 41 C-42.87625 40.4225 -42.7525 39.845 -42.625 39.25 C-41.99089935 36.96723766 -41.11228159 35.08552799 -40 33 C-39.67 32.34 -39.34 31.68 -39 31 C-35.56450192 26.52551023 -31.76109171 22.43502184 -27.92578125 18.3046875 C-25.82034547 16.07043583 -25.82034547 16.07043583 -25 13 C-23.67746739 12.62610644 -22.34041249 12.30361692 -21 12 C-18.88778437 10.90832379 -16.80592052 9.75682098 -14.75 8.5625 C-13.67234375 7.94503906 -12.5946875 7.32757812 -11.484375 6.69140625 C-10.66453125 6.13324219 -9.8446875 5.57507813 -9 5 C-9 4.34 -9 3.68 -9 3 C-5.92382812 2.70703125 -5.92382812 2.70703125 -2.84765625 2.4140625 C-2.23792969 2.27742187 -1.62820312 2.14078125 -1 2 C-0.67 1.34 -0.34 0.68 0 0 Z " fill="#1E1E1E" transform="translate(47,0)"/>
<path d="M0 0 C10.83152872 1.54178517 19.55442127 10.34970336 26.046875 18.6015625 C29.73400208 23.83728295 32.01327672 28.0318116 31.48828125 34.52734375 C29.48200423 44.6871306 24.56805067 52.8496505 16 58.6875 C4.97065532 65.17534981 -6.20095204 67.70921943 -18.74121094 69.39331055 C-26.32014872 70.51165329 -32.89475458 72.56285335 -38.15625 78.38671875 C-38.5996875 79.14597656 -39.043125 79.90523438 -39.5 80.6875 C-39.9640625 81.45449219 -40.428125 82.22148438 -40.90625 83.01171875 C-42.93971521 86.70826801 -43.27084035 89.37510222 -43.5625 93.625 C-43.64628906 94.81351562 -43.73007812 96.00203125 -43.81640625 97.2265625 C-43.87699219 98.14179687 -43.93757813 99.05703125 -44 100 C-44.66 100 -45.32 100 -46 100 C-46.64995297 98.58521865 -47.29478722 97.16808513 -47.9375 95.75 C-48.29714844 94.96109375 -48.65679687 94.1721875 -49.02734375 93.359375 C-52.15355155 85.77612396 -52.61638158 75.78128138 -49.9765625 67.97265625 C-44.17183729 57.56584228 -34.26741722 52.82207477 -23.87011719 47.88818359 C-20.713097 46.38880507 -17.57366309 44.85491634 -14.4375 43.3125 C-12.76494141 42.50232422 -12.76494141 42.50232422 -11.05859375 41.67578125 C-4.12915892 37.87919435 -1.44369662 33.88739324 2 27 C2.12655639 24.50713346 2.18978741 22.05577939 2.1875 19.5625 C2.18814453 18.84835938 2.18878906 18.13421875 2.18945312 17.3984375 C2.13070086 11.44843514 1.37530097 5.79591123 0 0 Z " fill="#CB7047" transform="translate(85,11)"/>
<path d="M0 0 C5.77270409 6.14513661 5.45239272 16.94911034 5.30859375 24.82421875 C4.90491323 28.9785512 3.91409706 31.01118251 1 34 C0.525625 34.49628906 0.05125 34.99257813 -0.4375 35.50390625 C-6.1804653 41.01218307 -13.35511836 43.6191877 -20.69140625 46.3984375 C-32.62750106 50.92289535 -44.19394149 56.63697747 -50.28125 68.49609375 C-53.1374841 75.52446979 -53.76044931 82.46613093 -54 90 C-54.66 90 -55.32 90 -56 90 C-61.34830507 79.5899062 -62.11732586 66.63395224 -59 55.39453125 C-56.01861817 48.847349 -51.61522081 44.26205072 -46.41015625 39.38671875 C-39.69347802 32.73535668 -36.86616879 26.85983742 -36.8125 17.5 C-36.79832031 16.3759375 -36.78414062 15.251875 -36.76953125 14.09375 C-36.99591784 11.05479778 -37.59598428 9.61934949 -39 7 C-39 5.68 -39 4.36 -39 3 C-37.29422658 2.34743544 -35.58523911 1.70326959 -33.875 1.0625 C-32.92367187 0.70285156 -31.97234375 0.34320313 -30.9921875 -0.02734375 C-21.79208648 -3.01797711 -9.09293318 -3.88237596 0 0 Z " fill="#DCA34C" transform="translate(79,8)"/>
<path d="M0 0 C0.66 0 1.32 0 2 0 C5.55813359 12.89823427 5.09829913 26.14767389 -0.5625 38.375 C-7.52953534 45.87796114 -16.42970258 48.92211044 -26.4609375 49.30859375 C-29.41927878 49.38551062 -32.37689017 49.43752618 -35.3359375 49.47851562 C-44.46585593 49.72740303 -54.36699581 51.07054869 -61 58 C-62.32726134 60.29991088 -63.11003184 62.47061682 -64 65 C-64.66 65.99 -65.32 66.98 -66 68 C-68.96032791 62.32603818 -69.94200823 57.39295475 -69 51 C-66.29001059 45.47579082 -62.04985341 41.172355 -56.24609375 38.94140625 C-52.82377371 37.94889226 -49.4472214 37.29935517 -45.9375 36.6875 C-30.31656519 33.71796049 -14.43663421 27.35866102 -5 14 C-2.50230821 9.65383595 -1.2779789 4.81699738 0 0 Z " fill="#894236" transform="translate(118,48)"/>
<path d="M0 0 C0.78375 0.2475 1.5675 0.495 2.375 0.75 C3.74959244 3.49918489 3.65741639 5.80549735 3.75 8.875 C3.79898438 9.97070312 3.84796875 11.06640625 3.8984375 12.1953125 C2.71978823 20.1995725 -2.93698336 25.37631352 -8.625 30.6875 C-13.69716233 35.60125953 -17.99364091 40.07717552 -20.625 46.75 C-20.92535156 47.47445312 -21.22570312 48.19890625 -21.53515625 48.9453125 C-23.60006751 54.45814534 -24.27061356 59.89651361 -24.625 65.75 C-25.285 65.75 -25.945 65.75 -26.625 65.75 C-31.2877245 55.38152715 -30.18724954 39.73070204 -26.6875 29.0625 C-22.85527011 20.19979368 -11.45046901 -1.09052086 0 0 Z " fill="#EFE9D3" transform="translate(35.625,15.25)"/>
<path d="M0 0 C0.66 0 1.32 0 2 0 C-3.19464588 11.33145793 -14.18970191 18.43505412 -25.18359375 23.453125 C-31.8579415 25.91803366 -37.92385865 26.50145884 -45 26 C-46.61460572 23.12398356 -47 21.93644018 -47 18.5 C-46 15 -46 15 -43.625 12.75 C-36.38765846 8.75756981 -27.98534563 7.80299172 -19.9375 6.5625 C-9.16653244 5.19129714 -9.16653244 5.19129714 0 0 Z " fill="#39302D" transform="translate(110,95)"/>
<path d="M0 0 C2.73946515 2.73946515 2.29930796 4.36620615 2.3125 8.1875 C2.24647615 13.6014561 1.6268006 17.29364892 -1 22 C-1.66 22 -2.32 22 -3 22 C-3 21.34 -3 20.68 -3 20 C-3.66 20 -4.32 20 -5 20 C-4.34 18.02 -3.68 16.04 -3 14 C-2.34 14 -1.68 14 -1 14 C-1.01160156 13.07316406 -1.02320313 12.14632813 -1.03515625 11.19140625 C-1.04417969 9.99386719 -1.05320313 8.79632813 -1.0625 7.5625 C-1.07410156 6.36753906 -1.08570313 5.17257813 -1.09765625 3.94140625 C-1 1 -1 1 0 0 Z " fill="#292322" transform="translate(41,17)"/>
<path d="M0 0 C0.33 0 0.66 0 1 0 C0.63118644 6.14689273 -0.90050429 8.69027374 -5 13 C-5.66 12.67 -6.32 12.34 -7 12 C-6.52570343 7.73133091 -3.96478822 5.89066852 -1 3 C-0.67 2.01 -0.34 1.02 0 0 Z " fill="#DA983F" transform="translate(83,31)"/>
<path d="M0 0 C1.65 0.33 3.3 0.66 5 1 C5 2.32 5 3.64 5 5 C3.68 5.33 2.36 5.66 1 6 C-0.0625 4.125 -0.0625 4.125 -1 2 C-0.67 1.34 -0.34 0.68 0 0 Z " fill="#E7E1CD" transform="translate(70,111)"/>
<path d="M0 0 C0.99 0.66 1.98 1.32 3 2 C2.1875 3.9375 2.1875 3.9375 1 6 C0.01 6.33 -0.98 6.66 -2 7 C-3.0625 5.125 -3.0625 5.125 -4 3 C-3 1 -3 1 0 0 Z " fill="#262120" transform="translate(90,74)"/>
<path d="M0 0 C0.66 0.33 1.32 0.66 2 1 C0.90344712 2.31886772 -0.20253423 3.62990057 -1.3125 4.9375 C-1.92738281 5.66839844 -2.54226562 6.39929687 -3.17578125 7.15234375 C-5 9 -5 9 -8 10 C-6.34908222 5.70761377 -3.26245434 3.1206085 0 0 Z " fill="#171716" transform="translate(27,45)"/>
<path d="M0 0 C1.15837573 3.47512718 0.77265943 5.13670286 0.0625 8.6875 C-0.13214844 9.68136719 -0.32679687 10.67523438 -0.52734375 11.69921875 C-0.68332031 12.45847656 -0.83929688 13.21773437 -1 14 C-1.33 14 -1.66 14 -2 14 C-2.33 10.04 -2.66 6.08 -3 2 C-2.01 2 -1.02 2 0 2 C0 1.34 0 0.68 0 0 Z " fill="#322521" transform="translate(86,17)"/>
<path d="M0 0 C1.32 0.66 2.64 1.32 4 2 C3.34 3.32 2.68 4.64 2 6 C0.68 5.34 -0.64 4.68 -2 4 C-1.34 2.68 -0.68 1.36 0 0 Z " fill="#39322F" transform="translate(30,24)"/>
<path d="M0 0 C1.32 0.33 2.64 0.66 4 1 C4 3.31 4 5.62 4 8 C3.34 8 2.68 8 2 8 C0.74335022 5.09399739 0 3.20395416 0 0 Z " fill="#D9D3BC" transform="translate(7,73)"/>
<path d="M0 0 C0 0.99 0 1.98 0 3 C-1.98 3.99 -1.98 3.99 -4 5 C-4 4.34 -4 3.68 -4 3 C-5.32 2.34 -6.64 1.68 -8 1 C-3.375 -1.125 -3.375 -1.125 0 0 Z " fill="#2A2321" transform="translate(65,53)"/>
<path d="M0 0 C0 3 0 3 0 3 Z " fill="#000000" transform="translate(14,21)"/>
<path d="M0 0 C3 1 3 1 3 1 Z " fill="#000000" transform="translate(79,127)"/>
<path d="M0 0 C3 1 3 1 3 1 Z " fill="#151515" transform="translate(46,127)"/>
<path d="M0 0 C3 1 3 1 3 1 Z " fill="#000000" transform="translate(43,126)"/>
<path d="" fill="#000000" transform="translate(0,0)"/>
<path d="" fill="#000000" transform="translate(0,0)"/>
<path d="" fill="#111111" transform="translate(0,0)"/>
<path d="" fill="#000000" transform="translate(0,0)"/>
<path d="M0 0 C3 1 3 1 3 1 Z " fill="#000000" transform="translate(82,1)"/>
<path d="M0 0 C3 1 3 1 3 1 Z " fill="#000000" transform="translate(43,1)"/>
<path d="M0 0 C3 1 3 1 3 1 Z " fill="#151515" transform="translate(79,0)"/>
<path d="M0 0 C2 1 2 1 2 1 Z " fill="#000000" transform="translate(83,126)"/>
<path d="M0 0 C2 1 2 1 2 1 Z " fill="#000000" transform="translate(41,125)"/>
<path d="M0 0 C2 1 2 1 2 1 Z " fill="#000000" transform="translate(88,124)"/>
<path d="M0 0 C2 1 2 1 2 1 Z " fill="#000000" transform="translate(38,124)"/>
<path d="M0 0 C2 1 2 1 2 1 Z " fill="#000000" transform="translate(90,123)"/>
<path d="M0 0 C2 1 2 1 2 1 Z " fill="#202020" transform="translate(36,123)"/>
<path d="M0 0 C2 1 2 1 2 1 Z " fill="#000000" transform="translate(34,122)"/>
<path d="M0 0 C2 1 2 1 2 1 Z " fill="#000000" transform="translate(94,121)"/>
<path d="M0 0 C2 1 2 1 2 1 Z " fill="#000000" transform="translate(32,121)"/>
<path d="M0 0 C2 1 2 1 2 1 Z " fill="#202020" transform="translate(96,120)"/>
<path d="M0 0 C2 1 2 1 2 1 Z " fill="#000000" transform="translate(29,119)"/>
<path d="M0 0 C2 1 2 1 2 1 Z " fill="#000000" transform="translate(99,118)"/>
<path d="M0 0 C2 1 2 1 2 1 Z " fill="#000000" transform="translate(26,117)"/>
<path d="M0 0 C2 1 2 1 2 1 Z " fill="#000000" transform="translate(103,115)"/>
<path d="M0 0 C2 1 2 1 2 1 Z " fill="#000000" transform="translate(22,114)"/>
<path d="" fill="#000000" transform="translate(0,0)"/>
<path d="" fill="#404040" transform="translate(0,0)"/>
<path d="" fill="#000000" transform="translate(0,0)"/>
<path d="" fill="#202020" transform="translate(0,0)"/>
<path d="" fill="#000000" transform="translate(0,0)"/>
<path d="" fill="#202020" transform="translate(0,0)"/>
<path d="" fill="#202020" transform="translate(0,0)"/>
<path d="" fill="#000000" transform="translate(0,0)"/>
<path d="" fill="#000000" transform="translate(0,0)"/>
<path d="" fill="#000000" transform="translate(0,0)"/>
<path d="" fill="#202020" transform="translate(0,0)"/>
<path d="" fill="#202020" transform="translate(0,0)"/>
<path d="" fill="#000000" transform="translate(0,0)"/>
<path d="" fill="#000000" transform="translate(0,0)"/>
<path d="" fill="#000000" transform="translate(0,0)"/>
<path d="" fill="#000000" transform="translate(0,0)"/>
<path d="" fill="#202020" transform="translate(0,0)"/>
<path d="" fill="#000000" transform="translate(0,0)"/>
<path d="" fill="#000000" transform="translate(0,0)"/>
<path d="" fill="#000000" transform="translate(0,0)"/>
<path d="" fill="#000000" transform="translate(0,0)"/>
<path d="" fill="#202020" transform="translate(0,0)"/>
<path d="" fill="#191919" transform="translate(0,0)"/>
<path d="" fill="#202020" transform="translate(0,0)"/>
<path d="" fill="#000000" transform="translate(0,0)"/>
<path d="M0 0 C2 1 2 1 2 1 Z " fill="#000000" transform="translate(103,12)"/>
<path d="M0 0 C2 1 2 1 2 1 Z " fill="#000000" transform="translate(26,10)"/>
<path d="M0 0 C2 1 2 1 2 1 Z " fill="#202020" transform="translate(99,9)"/>
<path d="M0 0 C2 1 2 1 2 1 Z " fill="#000000" transform="translate(29,8)"/>
<path d="M0 0 C2 1 2 1 2 1 Z " fill="#000000" transform="translate(96,7)"/>
<path d="M0 0 C2 1 2 1 2 1 Z " fill="#202020" transform="translate(94,6)"/>
<path d="M0 0 C2 1 2 1 2 1 Z " fill="#191919" transform="translate(32,6)"/>
<path d="M0 0 C2 1 2 1 2 1 Z " fill="#000000" transform="translate(92,5)"/>
<path d="M0 0 C2 1 2 1 2 1 Z " fill="#000000" transform="translate(34,5)"/>
<path d="M0 0 C2 1 2 1 2 1 Z " fill="#000000" transform="translate(90,4)"/>
<path d="M0 0 C2 1 2 1 2 1 Z " fill="#202020" transform="translate(36,4)"/>
<path d="M0 0 C2 1 2 1 2 1 Z " fill="#202020" transform="translate(88,3)"/>
<path d="M0 0 C2 1 2 1 2 1 Z " fill="#000000" transform="translate(85,2)"/>
<path d="M0 0 C2 1 2 1 2 1 Z " fill="#000000" transform="translate(41,2)"/>
<path d="" fill="#000000" transform="translate(0,0)"/>
<path d="" fill="#000000" transform="translate(0,0)"/>
<path d="" fill="#404040" transform="translate(0,0)"/>
<path d="" fill="#000000" transform="translate(0,0)"/>
<path d="" fill="#404040" transform="translate(0,0)"/>
<path d="" fill="#000000" transform="translate(0,0)"/>
<path d="" fill="#333333" transform="translate(0,0)"/>
<path d="" fill="#000000" transform="translate(0,0)"/>
<path d="" fill="#000000" transform="translate(0,0)"/>
<path d="" fill="#000000" transform="translate(0,0)"/>
<path d="" fill="#2B2B2B" transform="translate(0,0)"/>
<path d="" fill="#000000" transform="translate(0,0)"/>
<path d="" fill="#333333" transform="translate(0,0)"/>
<path d="" fill="#000000" transform="translate(0,0)"/>
<path d="" fill="#333333" transform="translate(0,0)"/>
<path d="" fill="#333333" transform="translate(0,0)"/>
<path d="" fill="#333333" transform="translate(0,0)"/>
<path d="" fill="#333333" transform="translate(0,0)"/>
<path d="" fill="#333333" transform="translate(0,0)"/>
<path d="" fill="#000000" transform="translate(0,0)"/>
<path d="" fill="#333333" transform="translate(0,0)"/>
<path d="" fill="#000000" transform="translate(0,0)"/>
<path d="" fill="#404040" transform="translate(0,0)"/>
<path d="" fill="#000000" transform="translate(0,0)"/>
<path d="" fill="#555555" transform="translate(0,0)"/>
<path d="" fill="#333333" transform="translate(0,0)"/>
<path d="" fill="#333333" transform="translate(0,0)"/>
<path d="" fill="#000000" transform="translate(0,0)"/>
<path d="" fill="#000000" transform="translate(0,0)"/>
<path d="" fill="#404040" transform="translate(0,0)"/>
<path d="" fill="#000000" transform="translate(0,0)"/>
<path d="" fill="#000000" transform="translate(0,0)"/>
<path d="" fill="#000000" transform="translate(0,0)"/>
<path d="" fill="#000000" transform="translate(0,0)"/>
<path d="" fill="#000000" transform="translate(0,0)"/>
<path d="" fill="#000000" transform="translate(0,0)"/>
<path d="" fill="#000000" transform="translate(0,0)"/>
<path d="" fill="#404040" transform="translate(0,0)"/>
<path d="" fill="#000000" transform="translate(0,0)"/>
<path d="" fill="#333333" transform="translate(0,0)"/>
<path d="" fill="#000000" transform="translate(0,0)"/>
<path d="" fill="#000000" transform="translate(0,0)"/>
<path d="" fill="#000000" transform="translate(0,0)"/>
<path d="" fill="#000000" transform="translate(0,0)"/>
<path d="" fill="#2B2B2B" transform="translate(0,0)"/>
<path d="" fill="#000000" transform="translate(0,0)"/>
<path d="" fill="#333333" transform="translate(0,0)"/>
<path d="" fill="#000000" transform="translate(0,0)"/>
<path d="" fill="#333333" transform="translate(0,0)"/>
<path d="" fill="#000000" transform="translate(0,0)"/>
<path d="" fill="#2B2B2B" transform="translate(0,0)"/>
<path d="" fill="#000000" transform="translate(0,0)"/>
<path d="" fill="#000000" transform="translate(0,0)"/>
<path d="" fill="#000000" transform="translate(0,0)"/>
<path d="" fill="#000000" transform="translate(0,0)"/>
<path d="" fill="#000000" transform="translate(0,0)"/>
<path d="" fill="#404040" transform="translate(0,0)"/>
<path d="" fill="#333333" transform="translate(0,0)"/>
<path d="" fill="#404040" transform="translate(0,0)"/>
<path d="" fill="#000000" transform="translate(0,0)"/>
<path d="" fill="#000000" transform="translate(0,0)"/>
<path d="" fill="#000000" transform="translate(0,0)"/>
<path d="" fill="#000000" transform="translate(0,0)"/>
</svg>
